<svg id="Layer_1" data-name="Layer 1" xmlns="http://www.w3.org/2000/svg" viewBox="0 0 566.93 731.34"><defs><style>.cls-1{fill:#f0f2f6;}</style></defs><title>mwdefold-logo-outline-light</title><path class="cls-1" d="M118.68,661.18H94.32v67.2h24c11.76,0,21.61-3.34,28.48-9.66,6.57-6.05,10.05-14.39,10.05-24.14v-.2C156.8,674.21,141.83,661.18,118.68,661.18Zm21.24,33.7c0,11.93-8,19.34-20.94,19.34h-8.3V675.35H119c12.92,0,20.94,7.41,20.94,19.33Zm40.93,20h33.06v13.46H164.67v-67.2h48.74v13.46H180.85V688.4h27.84v13.34H180.85Zm42.05-53.74h48.43v14H239.27v15.07h26.12v13.06H239.27v25.11H222.9Zm148.34,53.24h29.22v14h-45.6v-67.2h16.38Zm63.25-53.24H410.14v67.2h23.95c11.76,0,21.61-3.34,28.48-9.66,6.57-6.05,10-14.39,10-24.14v-.2C472.61,674.21,457.65,661.18,434.49,661.18Zm21.25,33.7c0,11.93-8,19.34-20.95,19.34H426.5V675.35h8.29c12.93,0,20.95,7.41,20.95,19.33ZM310.21,660.62a34.65,34.65,0,1,0,34.65,34.65A34.65,34.65,0,0,0,310.21,660.62Zm18.63,43.67a3.11,3.11,0,0,1-1.53,2.66l-15.55,9a3.1,3.1,0,0,1-3.09,0l-15.56-9a3.08,3.08,0,0,1-1.53-2.67v-18a3.08,3.08,0,0,1,1.53-2.67l15.55-9a3.12,3.12,0,0,1,3.1,0l15.54,9a3.09,3.09,0,0,1,1.54,2.67ZM104.74,649H94.32V603.18h15.75l10.43,29.38h.26l10-29.38h16V649H135.87l.26-32.43h-.19L124,649h-7.77l-11.59-32.43h-.19Zm78.5-9,3.56,9h12.3l-19-45.83H169.32L150.1,649h12l3.36-9Zm-8.74-24.6,5.7,15.73H168.67Zm62.64,28.13a21,21,0,0,0,5.89-7.19A22.53,22.53,0,0,0,245.27,626,23.57,23.57,0,0,0,243,615.09a19.2,19.2,0,0,0-5.95-7,23.93,23.93,0,0,0-8.42-3.75,40.67,40.67,0,0,0-9.58-1.13H202.48V649h17.09a33.64,33.64,0,0,0,9.32-1.33A24.64,24.64,0,0,0,237.14,643.54Zm-18.61-4.11h-5.24v-26.8h5.5a23.72,23.72,0,0,1,5.54.64,13.76,13.76,0,0,1,4.79,2.17,10.93,10.93,0,0,1,3.36,4.08,17,17,0,0,1,0,12.85,11,11,0,0,1-3.36,4.14,13.71,13.71,0,0,1-4.86,2.24A23.91,23.91,0,0,1,218.53,639.43Zm65,9.58h-32V603.18H282.4v9.32H262.27v8.67h19V630h-19v9.52h21.29Zm72.05,0H344.67l-9.06-31h-.2l-9.06,31h-11l-13-45.83h11.92l7.25,30.49h.19l8.16-30.49h11.52l8.22,30.49h.19l7.38-30.49h11.53Zm28,0H372.51V603.18h11.13Zm16.88,0V612.63H387.57v-9.45h37v9.45H411.58V649Zm39.05,0H428.5V603.18h11.07v17.34h17.87V603.18H468.5V649H457.44V629.85H439.57Z"/><path class="cls-1" d="M474,163.66V56.39L376.36,0l-92.9,53.64L190.57,0,92.9,56.39V163.66L0,217.29V330.07l92.9,53.64V491l97.67,56.39,92.89-53.63,92.9,53.64L474,491V383.71l92.9-53.64V217.29ZM366.8,220.05l-83.34,48.12-83.33-48.12,83.33-48.12Zm-171.44,8.28,83.34,48.12v96.22l-83.34-48.12Zm78.55-169.2-78.55,45.36V13.78ZM14.35,327.31,92.9,282v90.71Zm362,209L283.46,482.7l-92.89,53.63-83.34-48.12,92.9-53.63-92.9-53.64,83.34-48.11,92.89,53.63,92.9-53.63,83.34,48.11-92.9,53.64,92.9,53.63Zm88.1-56.39-78.55-45.35,78.55-45.35v90.7ZM474,372.67V282l78.55,45.36ZM557.36,319,464.49,265.4V372.66l-83.34-48.12V217.28l-92.91-53.62V67.44l92.9,53.63V13.8l83.35,48.11V169.18l92.89,53.63V319Z"/></svg>