<svg id="Layer_1" data-name="Layer 1" xmlns="http://www.w3.org/2000/svg" xmlns:xlink="http://www.w3.org/1999/xlink" viewBox="0 0 1870.87 518.74"><defs><style>.cls-1{fill:#fff;}.cls-2{fill:#15244a;}.cls-3{fill:url(#linear-gradient);}.cls-4{fill:url(#linear-gradient-2);}</style><linearGradient id="linear-gradient" x1="132.04" y1="-3348.56" x2="495.87" y2="-3557.45" gradientTransform="matrix(1, 0, 0, -1, 0, -3271.5)" gradientUnits="userSpaceOnUse"><stop offset="0" stop-color="#1c68ec"/><stop offset="1" stop-color="#00e9df"/></linearGradient><linearGradient id="linear-gradient-2" x1="12.97" y1="-3382.63" x2="356.07" y2="-3580.46" gradientTransform="matrix(1, 0, 0, -1, 0, -3271.5)" gradientUnits="userSpaceOnUse"><stop offset="0" stop-color="#ff3c2a"/><stop offset="1" stop-color="#ffd215"/></linearGradient></defs><title>mwdefold-logo-horizontal-color-white</title><path class="cls-1" d="M765.15,241.88H689V451.81h74.85c36.72,0,67.49-10.43,89-30.17,20.53-18.89,31.38-45,31.38-75.43v-.62C884.24,282.59,837.49,241.88,765.15,241.88Zm66.37,105.28c0,37.26-25.07,60.42-65.43,60.42H740.16V286.14h25.93c40.36,0,65.43,23.15,65.43,60.41Zm127.86,62.61h103.27v42H908.85V241.88H1061.1v42H959.38v43h87V368.6h-87Zm131.36-167.89H1242V285.5H1141.89v47.07h81.61v40.8h-81.61v78.44h-51.15Zm463.42,166.31h91.3v43.62H1503V241.88h51.16Zm197.62-166.31h-76.09V451.81h74.83c36.74,0,67.49-10.43,89-30.17,20.53-18.89,31.38-45,31.38-75.43v-.62C1870.87,282.59,1824.12,241.88,1751.78,241.88Zm66.37,105.28c0,37.26-25.07,60.42-65.43,60.42h-25.93V286.14h25.93c40.36,0,65.43,23.15,65.43,60.41Zm-454.64-107a108.26,108.26,0,1,0,108.26,108.25A108.25,108.25,0,0,0,1363.51,240.13Zm58.2,136.43a9.67,9.67,0,0,1-4.79,8.3L1368.36,413a9.68,9.68,0,0,1-9.68,0l-48.58-28.14a9.68,9.68,0,0,1-4.81-8.34V320.2a9.68,9.68,0,0,1,4.81-8.34l48.56-28.14a9.68,9.68,0,0,1,9.68,0l48.56,28.14a9.68,9.68,0,0,1,4.81,8.34ZM721.6,203.85H689V60.67h49.21l32.6,91.81h.81l31.18-91.81h50V203.85h-34l.81-101.32h-.61L781.87,203.85H757.6L721.4,102.53h-.61Zm245.25-28.11L978,203.85h38.42L956.94,60.67H923.37L863.3,203.85h37.62l10.51-28.11Zm-27.3-76.85L957.34,148h-36Zm195.69,87.87a65.58,65.58,0,0,0,18.41-22.45q7-13.65,7-32.46,0-20.22-7.08-34a60.06,60.06,0,0,0-18.6-21.94,75.19,75.19,0,0,0-26.29-11.73,127.91,127.91,0,0,0-29.93-3.54H1027V203.85h53.39a104.3,104.3,0,0,0,29.12-4.15A76.76,76.76,0,0,0,1135.24,186.76Zm-58.14-12.84h-16.38V90.19h17.19a73.5,73.5,0,0,1,17.29,2,42.19,42.19,0,0,1,15,6.77,33.94,33.94,0,0,1,10.51,12.74q3.94,8,4,20.12,0,11.94-4,20a34.58,34.58,0,0,1-10.51,12.95,42.37,42.37,0,0,1-15.17,7A74.17,74.17,0,0,1,1077.1,173.92Zm203.16,29.93h-99.9V60.67h96.26V89.79h-62.89v27.1h59.45v27.7h-59.45v29.73h66.53Zm225.08,0h-34.17L1442.85,107h-.6l-28.32,96.87h-34.38L1338.91,60.67h37.21l22.65,95.25h.6l25.48-95.25h36l25.69,95.25h.6l23.06-95.25h36Zm87.57,0h-34.79V60.67h34.79Zm52.72,0V90.19h-40.45V60.67h115.48V90.19h-40.45V203.85Zm122,0h-34.58V60.67h34.58v54.2h55.82V60.67H1858V203.85h-34.58V144h-55.82Z"/><path class="cls-2" d="M358.51,207l-89.62,51.74L179.26,207l89.63-51.73Zm89.63,51.74V362.22l89.63-51.73ZM0,310.46l89.63,51.73V258.73ZM268.89,465.69l89.62,51.73,89.63-51.73L358.51,414h0l89.63-51.74-89.63-51.73-89.62,51.73-89.63-51.73L89.63,362.22,179.26,414h0L89.63,465.69l89.63,51.73Z"/><path class="cls-3" d="M448.11,362.22v103.5L358.48,414Zm-179.25,0V258.73L179.23,207v103.5ZM179.23,0V103.5l89.66-51.88ZM448.11,155.23h0M358.48,310.46l89.63,51.73V258.73l89.63,51.73V207l-89.63-51.73V51.62h0L358.48-.12v103.5L268.89,51.62V155.11l89.62,51.74V310.34Z"/><path class="cls-4" d="M268.89,362.22V258.73L358.51,207v103.5Zm0-310.49,89.62,51.74V0ZM89.63,155.23h0M179.26,207l89.63-51.73V51.62l-89.63,51.73V0L89.63,51.62h0V155.11L0,206.85V310.34l89.63-51.73v103.5l89.63-51.74V207ZM89.63,362.19v103.5L179.26,414Z"/></svg>