<?xml version="1.0" encoding="UTF-8" standalone="no"?>
<!DOCTYPE svg PUBLIC "-//W3C//DTD SVG 1.1//EN" "http://www.w3.org/Graphics/SVG/1.1/DTD/svg11.dtd">
<svg width="100%" height="100%" viewBox="0 0 313 369" version="1.1" xmlns="http://www.w3.org/2000/svg" xmlns:xlink="http://www.w3.org/1999/xlink" xml:space="preserve" xmlns:serif="http://www.serif.com/" style="fill-rule:evenodd;clip-rule:evenodd;stroke-linejoin:round;stroke-miterlimit:2;">
    <g transform="matrix(1,0,0,1,-144,-217)">
        <g id="Logos">
            <g transform="matrix(1,0,0,1,144,396.2)">
                <path d="M0,0.001L0,0L0,0.001Z" style="fill:rgb(255,206,0);fill-rule:nonzero;"/>
            </g>
            <g transform="matrix(1,0,0,1,455.999,396.2)">
                <path d="M0,0.001L0.001,0.001L0.001,0L0,0.001Z" style="fill:rgb(0,207,255);fill-rule:nonzero;"/>
            </g>
            <g transform="matrix(1,0,0,1,196,486.999)">
                <rect x="0" y="0" width="0.001" height="0.001" style="fill:rgb(21,36,74);"/>
            </g>
            <g transform="matrix(1,0,0,1,404,486.999)">
                <rect x="0" y="0" width="0.001" height="0.001" style="fill:rgb(0,207,255);"/>
            </g>
            <g transform="matrix(1,0,0,1,404,457)">
                <path d="M0,-90L0,-30L52,-60L0,-90ZM0,-30L-52,-60L-104,-30L-156,-60L-208,-30L-156,0L-208,30L-156,60L-104,30L-52,60L0,30L-52,0L0,-30ZM-208,-90L-260,-60L-208,-30L-208,-90ZM-156,-120L-104,-150L-52,-120L-104,-90L-156,-120Z" style="fill:rgb(21,36,74);fill-rule:nonzero;"/>
            </g>
            <g transform="matrix(233.942,135.067,135.067,-233.942,222.034,261.975)">
                <path d="M0.667,0.192L0.556,0.385L0.333,0.385L0.444,0.192L0.222,0.192L0.333,-0L0.556,0L0.667,-0.192L0.889,-0.192L0.778,0L1,0L0.889,0.193L0.667,0.192ZM0.778,-0.385L1,-0.385L0.889,-0.192L0.778,-0.385ZM0.111,-0L0.222,0.192L-0,0.192L0.111,-0ZM0.444,-0.192L0.555,-0.385L0.333,-0.385L0.222,-0.192L0.444,-0.192Z" style="fill:url(#_Linear1);fill-rule:nonzero;"/>
            </g>
            <g transform="matrix(181.981,105.067,105.067,-181.981,170.005,291.958)">
                <path d="M0.286,-0.247L0.428,-0.495L0.571,-0.247L0.429,-0L0.572,0.247L0.429,0.495L0.286,0.247L0.143,0.495L0,0.247L0.143,-0L-0,-0.248L0.143,-0.495L0.286,-0.247ZM0.714,-0.495L0.428,-0.495L0.571,-0.742L0.714,-0.495ZM0.714,0.495L0.572,0.742L0.429,0.495L0.714,0.495ZM0.857,0.247L1,0L0.857,-0.247L0.714,0L0.857,0.247Z" style="fill:url(#_Linear2);fill-rule:nonzero;"/>
            </g>
            <g transform="matrix(1,0,0,1,325.359,561.054)">
                <path d="M0,9.892L0,-0C0,-0.604 -0.322,-1.162 -0.846,-1.465L-9.388,-6.405C-9.914,-6.709 -10.563,-6.709 -11.089,-6.405L-19.631,-1.465C-20.155,-1.162 -20.477,-0.604 -20.477,-0L-20.477,9.892C-20.477,10.496 -20.155,11.054 -19.631,11.356L-11.089,16.297C-10.563,16.601 -9.914,16.601 -9.388,16.297L-0.846,11.357C-0.322,11.054 0,10.496 0,9.892M8.8,4.946C8.8,15.439 0.276,23.946 -10.238,23.946C-20.753,23.946 -29.277,15.439 -29.277,4.946C-29.277,-5.548 -20.753,-14.054 -10.238,-14.054C0.276,-14.054 8.8,-5.548 8.8,4.946M69.721,4.622C69.721,-1.917 65.311,-5.98 58.214,-5.98L53.66,-5.98L53.66,15.335L58.214,15.335C65.311,15.335 69.721,11.272 69.721,4.733L69.721,4.622ZM78.992,4.458L78.992,4.567C78.992,9.914 77.084,14.492 73.474,17.805C69.696,21.27 64.285,23.102 57.826,23.102L44.665,23.102L44.665,-13.748L58.047,-13.748C70.771,-13.748 78.992,-6.602 78.992,4.458M23.29,-13.748L14.293,-13.748L14.293,23.102L39.348,23.102L39.348,15.446L23.29,15.446L23.29,-13.748ZM-58.213,-13.748L-58.213,23.102L-49.217,23.102L-49.217,9.332L-34.861,9.332L-34.861,2.171L-49.217,2.171L-49.217,-6.09L-31.603,-6.09L-31.603,-13.748L-58.213,-13.748ZM-81.315,8.496L-66.02,8.496L-66.02,1.181L-81.315,1.181L-81.315,-6.366L-63.427,-6.366L-63.427,-13.748L-90.201,-13.748L-90.201,23.102L-63.151,23.102L-63.151,15.722L-81.315,15.722L-81.315,8.496ZM-103.803,4.622C-103.803,-1.917 -108.212,-5.98 -115.31,-5.98L-119.864,-5.98L-119.864,15.335L-115.31,15.335C-108.212,15.335 -103.803,11.272 -103.803,4.733L-103.803,4.622ZM-94.531,4.458L-94.531,4.567C-94.531,9.914 -96.44,14.492 -100.05,17.805C-103.827,21.27 -109.238,23.102 -115.696,23.102L-128.859,23.102L-128.859,-13.748L-115.477,-13.748C-102.753,-13.748 -94.531,-6.602 -94.531,4.458M85.909,-11.864L84.736,-13.748L83.678,-13.748L83.678,-9.294L84.64,-9.294L84.64,-12.182L85.884,-10.299L85.909,-10.299L87.166,-12.201L87.166,-9.294L88.141,-9.294L88.141,-13.748L87.082,-13.748L85.909,-11.864ZM79.009,-13.748L82.707,-13.748L82.707,-12.844L81.349,-12.844L81.349,-9.294L80.367,-9.294L80.367,-12.844L79.009,-12.844L79.009,-13.748Z" style="fill:rgb(240,242,246);fill-rule:nonzero;"/>
            </g>
        </g>
    </g>
    <defs>
        <linearGradient id="_Linear1" x1="0" y1="0" x2="1" y2="0" gradientUnits="userSpaceOnUse" gradientTransform="matrix(1,0,0,-1,0,-7.98048e-08)"><stop offset="0" style="stop-color:rgb(28,104,236);stop-opacity:1"/><stop offset="1" style="stop-color:rgb(0,233,223);stop-opacity:1"/></linearGradient>
        <linearGradient id="_Linear2" x1="0" y1="0" x2="1" y2="0" gradientUnits="userSpaceOnUse" gradientTransform="matrix(1,-5.55112e-17,-5.55112e-17,-1,0,-3.5272e-07)"><stop offset="0" style="stop-color:rgb(255,60,42);stop-opacity:1"/><stop offset="1" style="stop-color:rgb(255,210,21);stop-opacity:1"/></linearGradient>
    </defs>
</svg>
