<svg id="Layer_1" data-name="Layer 1" xmlns="http://www.w3.org/2000/svg" viewBox="0 0 1700.79 357.17"><defs><style>.cls-1{fill:#15244a;}</style></defs><title>defold-logo-horizontal-outline-dark</title><polygon class="cls-1" points="1648.89 77.04 1656.61 77.04 1656.61 97.25 1662.18 97.25 1662.18 77.04 1669.9 77.04 1669.9 71.89 1648.89 71.89 1648.89 77.04"/><polygon class="cls-1" points="1688.12 82.61 1681.43 71.89 1675.43 71.89 1675.43 97.25 1680.89 97.25 1680.89 80.81 1687.98 91.52 1688.12 91.52 1695.26 80.69 1695.26 97.25 1700.79 97.25 1700.79 71.89 1694.78 71.89 1688.12 82.61"/><path class="cls-1" d="M550.12,71.89H474v210h74.88c36.74,0,67.53-10.43,89-30.18,20.54-18.9,31.39-45,31.39-75.47v-.61C669.26,112.61,622.49,71.89,550.12,71.89Zm66.41,105.33c0,37.27-25.09,60.44-65.47,60.44H525.12V116.17h25.94c40.38,0,65.47,23.16,65.47,60.43Z"/><polygon class="cls-1" points="744.44 198.67 831.44 198.67 831.44 156.97 744.44 156.97 744.44 113.95 846.2 113.95 846.2 71.89 693.88 71.89 693.88 281.92 847.76 281.92 847.76 239.85 744.44 239.85 744.44 198.67"/><polygon class="cls-1" points="875.85 71.89 875.85 281.92 927.03 281.92 927.03 203.44 1008.68 203.44 1008.68 162.62 927.03 162.62 927.03 115.53 1027.22 115.53 1027.22 71.89 875.85 71.89"/><polygon class="cls-1" points="1339.48 71.89 1288.3 71.89 1288.3 281.92 1430.82 281.92 1430.82 238.28 1339.48 238.28 1339.48 71.89"/><path class="cls-1" d="M1537.19,71.89h-76.12v210h74.87c36.75,0,67.52-10.43,89-30.18,20.53-18.9,31.38-45,31.38-75.47v-.61C1656.33,112.61,1609.56,71.89,1537.19,71.89Zm66.41,105.33c0,37.27-25.08,60.44-65.47,60.44h-25.94V116.17h25.94c40.39,0,65.47,23.16,65.47,60.43Z"/><path class="cls-1" d="M1148.75,70.13a108.31,108.31,0,1,0,108.3,108.31h0A108.31,108.31,0,0,0,1148.75,70.13Zm53.43,144.8-48.58,28.16a9.68,9.68,0,0,1-9.68,0l-48.6-28.16a9.62,9.62,0,0,1-4.81-8.34V150.25a9.62,9.62,0,0,1,4.81-8.34l48.58-28.16a9.68,9.68,0,0,1,9.68,0l48.58,28.16a9.62,9.62,0,0,1,4.81,8.34v56.38A9.63,9.63,0,0,1,1202.18,214.93Z"/><path class="cls-1" d="M307.29,106.09V36.55L244,0,183.76,34.77,123.54,0,60.22,36.55v69.54L0,140.86V214l60.22,34.77v69.53l63.32,36.55,60.22-34.76L244,354.82l63.31-36.55V248.74L367.51,214V140.86ZM240.88,8.93v58.8L190,38.33ZM180.66,179.2v62.38l-54-31.19V148Zm60.22,31.19-54,31.19V179.2l54-31.19v62.38ZM177.56,38.33l-50.92,29.4V8.93ZM6.2,206.78V144.44l60.22-34.77V40.13L120.46,9V78.48l60.22-34.77v62.38l-60.22,34.76v69.54l-54,31.19V172.05Zm60.22,45.5,50.92,29.4-50.92,29.4v-58.8Zm234.7,58.8-50.92-29.4,50.92-29.4v58.8Zm60.19-104.3L301.09,172v69.57l-54-31.19V140.85l-60.22-34.76V43.72l60.22,34.76V9l54,31.19v69.53l60.22,34.77v62.34Z"/></svg>