<svg id="Layer_1" data-name="Layer 1" xmlns="http://www.w3.org/2000/svg" xmlns:xlink="http://www.w3.org/1999/xlink" viewBox="0 0 566.93 668.98"><defs><style>.cls-1{fill:#fff;}.cls-2{fill:#15244a;}.cls-3{fill:url(#linear-gradient);}.cls-4{fill:url(#linear-gradient-2);}</style><linearGradient id="linear-gradient" x1="139.19" y1="81.28" x2="522.76" y2="301.5" gradientUnits="userSpaceOnUse"><stop offset="0" stop-color="#1c68ec"/><stop offset="1" stop-color="#00e9df"/></linearGradient><linearGradient id="linear-gradient-2" x1="13.69" y1="117.17" x2="375.39" y2="325.73" gradientUnits="userSpaceOnUse"><stop offset="0" stop-color="#ff3c2a"/><stop offset="1" stop-color="#ffd215"/></linearGradient></defs><title>defold-logo-color-white</title><path class="cls-1" d="M472.43,600.09h6.72v1.64h-2.47v6.47H474.9v-6.47h-2.47ZM485,603.52l-2.14-3.43h-1.92v8.11h1.75v-5.26l2.26,3.43H485l2.28-3.47v5.3H489v-8.11h-1.92ZM156.9,633.25v.2c0,9.74-3.47,18.08-10,24.12-6.87,6.31-16.71,9.65-28.45,9.65H94.49V600.09h24.33C142,600.09,156.9,613.1,156.9,633.25Zm-16.86.3c0-11.91-8-19.31-20.92-19.31h-8.28v38.83h8.28c12.91,0,20.92-7.4,20.92-19.32Zm40.89,7.06h27.81V627.28H180.93V613.53h32.53V600.09H164.78v67.13H214V653.78h-33Zm42-40.52v67.13h16.35V642.13h26.1v-13h-26.1V614h32V600.09Zm148.18,0H354.76v67.13h45.56v-14h-29.2ZM472.4,633.25v.2c0,9.74-3.47,18.08-10,24.12-6.87,6.31-16.71,9.65-28.46,9.65H410V600.09h24.33C457.45,600.09,472.4,613.1,472.4,633.25Zm-16.86.3c0-11.91-8-19.31-20.92-19.31h-8.28v38.83h8.28c12.9,0,20.92-7.4,20.92-19.32Zm-110.76.59a34.62,34.62,0,1,1-34.62-34.61A34.62,34.62,0,0,1,344.78,634.14Zm-16,9v-18a3.1,3.1,0,0,0-1.54-2.67l-15.53-9a3.1,3.1,0,0,0-3.09,0l-15.54,9a3.09,3.09,0,0,0-1.53,2.67v18a3.08,3.08,0,0,0,1.53,2.67l15.54,9a3.05,3.05,0,0,0,3.09,0l15.53-9A3.09,3.09,0,0,0,328.78,643.15Z"/><path class="cls-2" d="M378,218.21l-94.49,54.55L189,218.21l94.48-54.55Zm94.49,54.55V381.87l94.49-54.55ZM0,327.32l94.49,54.55V272.76ZM283.46,491,378,545.53,472.44,491,378,436.42h0l94.49-54.55L378,327.32l-94.49,54.55L189,327.32,94.49,381.87,189,436.42h0L94.49,491,189,545.53Z"/><path class="cls-3" d="M472.44,381.87V491L378,436.42Zm-189,0V272.76L189,218.21V327.32ZM189,0V109.11l94.48-54.56ZM472.44,163.66h0M378,327.32l94.49,54.55V272.76l94.49,54.56V218.21l-94.49-54.55V54.55h0L378,0V109.11L283.46,54.55V163.66L378,218.21Z"/><path class="cls-4" d="M283.46,381.87V272.76L378,218.21V327.32Zm0-327.32L378,109.11V0Zm-189,109.11h0M189,218.21l94.48-54.55V54.55L189,109.11V0L94.49,54.55h0V163.66L0,218.21V327.32l94.49-54.56V381.87L189,327.32ZM94.49,381.87V491L189,436.42Z"/></svg>