<svg viewBox="0 0 1700.79 357.17" xmlns="http://www.w3.org/2000/svg"><g fill="#f0f2f6"><path d="m1648.89 77.04h7.72v20.21h5.57v-20.21h7.72v-5.15h-21.01z"/><path d="m1688.12 82.61-6.69-10.72h-6v25.36h5.46v-16.44l7.09 10.71h.14l7.14-10.83v16.56h5.53v-25.36h-6.01z"/><path d="m550.12 71.89h-76.12v210h74.88c36.74 0 67.53-10.43 89-30.18 20.54-18.9 31.39-45 31.39-75.47v-.61c-.01-63.02-46.78-103.74-119.15-103.74zm66.41 105.33c0 37.27-25.09 60.44-65.47 60.44h-25.94v-121.49h25.94c40.38 0 65.47 23.16 65.47 60.43z"/><path d="m744.44 198.67h87v-41.7h-87v-43.02h101.76v-42.06h-152.32v210.03h153.88v-42.07h-103.32z"/><path d="m875.85 71.89v210.03h51.18v-78.48h81.65v-40.82h-81.65v-47.09h100.19v-43.64z"/><path d="m1339.48 71.89h-51.18v210.03h142.52v-43.64h-91.34z"/><path d="m1537.19 71.89h-76.12v210h74.87c36.75 0 67.52-10.43 89-30.18 20.53-18.9 31.38-45 31.38-75.47v-.61c.01-63.02-46.76-103.74-119.13-103.74zm66.41 105.33c0 37.27-25.08 60.44-65.47 60.44h-25.94v-121.49h25.94c40.39 0 65.47 23.16 65.47 60.43z"/><path d="m1148.75 70.13a108.31 108.31 0 1 0 108.3 108.31 108.31 108.31 0 0 0 -108.3-108.31zm53.43 144.8-48.58 28.16a9.68 9.68 0 0 1 -9.68 0l-48.6-28.16a9.62 9.62 0 0 1 -4.81-8.34v-56.34a9.62 9.62 0 0 1 4.81-8.34l48.58-28.16a9.68 9.68 0 0 1 9.68 0l48.58 28.16a9.62 9.62 0 0 1 4.81 8.34v56.38a9.63 9.63 0 0 1 -4.79 8.3z"/><path d="m307.29 106.09v-69.54l-63.29-36.55-60.24 34.77-60.22-34.77-63.32 36.55v69.54l-60.22 34.77v73.14l60.22 34.77v69.53l63.32 36.55 60.22-34.76 60.24 34.74 63.31-36.55v-69.54l60.2-34.74v-73.14zm-69.51 36.56-54 31.19-54-31.19 54-31.2zm-111.14 5.35 54 31.19v62.37l-54-31.19zm50.92-109.67-50.92 29.4v-58.8zm-168.26 173.85 50.92-29.37v58.8zm234.7 135.49-60.23-34.76-60.22 34.77-54-31.2 60.22-34.76-60.26-34.72 54-31.19 60.22 34.76 60.27-34.81 54 31.24-60.22 34.77 60.22 34.71zm57.11-36.55-50.92-29.4 50.92-29.4zm6.2-69.54v-58.77l50.92 29.4zm54-34.8-60.21-34.73v69.53l-54-31.19v-69.54l-60.23-34.76v-62.37l60.22 34.76v-69.48l54 31.18v69.54l60.22 34.77v62.34z"/></g></svg>