<svg id="Layer_1" data-name="Layer 1" xmlns="http://www.w3.org/2000/svg" xmlns:xlink="http://www.w3.org/1999/xlink" viewBox="0 0 1700.79 357.17"><defs><style>.cls-1{fill:#15244a;}.cls-2{fill:url(#linear-gradient);}.cls-3{fill:url(#linear-gradient-2);}.cls-4{fill:#f0f2f6;}</style><linearGradient id="linear-gradient" x1="90.24" y1="4011.83" x2="338.9" y2="3869.06" gradientTransform="matrix(1, 0, 0, -1, 0, 4064.57)" gradientUnits="userSpaceOnUse"><stop offset="0" stop-color="#1c68ec"/><stop offset="1" stop-color="#00e9df"/></linearGradient><linearGradient id="linear-gradient-2" x1="8.87" y1="3988.54" x2="243.35" y2="3853.34" gradientTransform="matrix(1, 0, 0, -1, 0, 4064.57)" gradientUnits="userSpaceOnUse"><stop offset="0" stop-color="#ff3c2a"/><stop offset="1" stop-color="#ffd215"/></linearGradient></defs><title>defold-logo-horizontal-color-light</title><path class="cls-1" d="M245,141.55,183.77,176.9l-61.26-35.35,61.26-35.36Zm61.26,35.35v70.74l61.25-35.36ZM0,212.26l61.26,35.36V176.9ZM183.77,318.35,245,353.71l61.26-35.36L245,283h0l61.26-35.35L245,212.28l-61.25,35.36-61.26-35.36L61.26,247.64,122.51,283h0L61.26,318.35l61.25,35.36Z"/><path class="cls-2" d="M306.26,247.64v70.73L245,283Zm-122.51,0V176.9l-61.26-35.35v70.73ZM122.49.08V70.81l61.28-35.45ZM306.26,106.17h0M245,212.26l61.26,35.36V176.9l61.25,35.36V141.55l-61.25-35.36V35.36h0L245,0V70.73L183.77,35.36v70.73L245,141.45v70.73Z"/><path class="cls-3" d="M183.77,247.64V176.9L245,141.55v70.73Zm0-212.2L245,70.79V.08ZM61.26,106.17h0m61.25,35.36,61.26-35.36V35.36L122.51,70.71V.08L61.26,35.36h0v70.73L0,141.45v70.73l61.26-35.36v70.74l61.25-35.36V141.53ZM61.26,247.62v70.73L122.51,283Z"/><polygon class="cls-4" points="1648.89 77.04 1656.61 77.04 1656.61 97.25 1662.18 97.25 1662.18 77.04 1669.9 77.04 1669.9 71.89 1648.89 71.89 1648.89 77.04"/><polygon class="cls-4" points="1688.12 82.61 1681.43 71.89 1675.43 71.89 1675.43 97.25 1680.89 97.25 1680.89 80.81 1687.98 91.52 1688.12 91.52 1695.26 80.69 1695.26 97.25 1700.79 97.25 1700.79 71.89 1694.78 71.89 1688.12 82.61"/><path class="cls-4" d="M550.12,71.89H474v210h74.88c36.74,0,67.53-10.43,89-30.18,20.54-18.9,31.39-45,31.39-75.47v-.61C669.26,112.61,622.49,71.89,550.12,71.89Zm66.41,105.33c0,37.27-25.09,60.44-65.47,60.44H525.12V116.17h25.94c40.38,0,65.47,23.16,65.47,60.43Z"/><polygon class="cls-4" points="744.44 198.67 831.44 198.67 831.44 156.97 744.44 156.97 744.44 113.95 846.2 113.95 846.2 71.89 693.88 71.89 693.88 281.92 847.76 281.92 847.76 239.85 744.44 239.85 744.44 198.67"/><polygon class="cls-4" points="875.85 71.89 875.85 281.92 927.03 281.92 927.03 203.44 1008.68 203.44 1008.68 162.62 927.03 162.62 927.03 115.53 1027.22 115.53 1027.22 71.89 875.85 71.89"/><polygon class="cls-4" points="1339.48 71.89 1288.3 71.89 1288.3 281.92 1430.82 281.92 1430.82 238.28 1339.48 238.28 1339.48 71.89"/><path class="cls-4" d="M1537.19,71.89h-76.12v210h74.87c36.75,0,67.52-10.43,89-30.18,20.53-18.9,31.38-45,31.38-75.47v-.61C1656.33,112.61,1609.56,71.89,1537.19,71.89Zm66.41,105.33c0,37.27-25.08,60.44-65.47,60.44h-25.94V116.17h25.94c40.39,0,65.47,23.16,65.47,60.43Z"/><path class="cls-4" d="M1148.75,70.13a108.31,108.31,0,1,0,108.3,108.31h0A108.31,108.31,0,0,0,1148.75,70.13Zm53.43,144.8-48.58,28.16a9.68,9.68,0,0,1-9.68,0l-48.6-28.16a9.62,9.62,0,0,1-4.81-8.34V150.25a9.62,9.62,0,0,1,4.81-8.34l48.58-28.16a9.68,9.68,0,0,1,9.68,0l48.58,28.16a9.62,9.62,0,0,1,4.81,8.34v56.38A9.63,9.63,0,0,1,1202.18,214.93Z"/></svg>