<svg viewBox="0 0 1876.5 531.4" xmlns="http://www.w3.org/2000/svg"><g fill="#fff"><path d="m713.6 410.6h50.6v69c-8.3 2.7-16.2 4.6-23.8 5.7s-15.8 1.7-24.7 1.7c-20.8 0-36.8-6.2-48.1-18.5s-16.9-29.7-16.9-52.1 6.4-39.4 19.1-51.9 30.2-18.8 52.5-18.8 27.9 2.8 40.8 8.3l-7.9 18.7c-11.2-5.1-22.3-7.7-33.5-7.7s-26.3 4.6-34.8 13.8-12.8 21.8-12.8 37.8 3.8 29.6 11.5 38.3 18.7 13.1 33.1 13.1 15-.9 23.3-2.7v-35.4h-28.5v-19.3z"/><path d="m856 485.2-4.4-14.5h-.8c-5 6.3-10.1 10.6-15.1 12.9-5.1 2.3-11.6 3.4-19.6 3.4s-18.2-2.8-23.9-8.3-8.6-13.3-8.6-23.4 4-18.8 11.9-24.2c8-5.5 20.1-8.4 36.4-8.9l18-.6v-5.5c0-6.6-1.6-11.6-4.7-14.9s-7.9-4.9-14.4-4.9-10.4.8-15.3 2.3c-4.9 1.6-9.6 3.4-14.1 5.5l-7.1-15.8c5.6-2.9 11.8-5.2 18.5-6.7s13-2.3 19-2.3c13.2 0 23.2 2.9 29.9 8.6 6.7 5.8 10.1 14.8 10.1 27.2v70h-15.8zm-32.9-15.1c8 0 14.5-2.2 19.3-6.7 4.9-4.5 7.3-10.8 7.3-18.8v-9l-13.3.6c-10.4.4-18 2.1-22.7 5.2s-7.1 7.8-7.1 14.2 1.4 8.2 4.1 10.8c2.8 2.5 6.9 3.8 12.4 3.8z"/><path d="m986.4 485.2h-22.2v-64.1c0-8-1.5-13.9-4.5-17.8s-7.7-5.9-14.1-5.9-14.8 2.8-18.8 8.3-6 14.8-6 27.7v51.8h-22.1v-104h17.3l3.1 13.6h1.1c2.9-4.9 7.1-8.8 12.5-11.5 5.5-2.7 11.5-4 18.1-4 16 0 26.6 5.5 31.8 16.4h1.5c3.1-5.1 7.4-9.1 13-12s12-4.3 19.2-4.3c12.4 0 21.4 3.1 27.1 9.4s8.5 15.8 8.5 28.7v67.8h-22.1v-64.1c0-8-1.5-13.9-4.6-17.8-3-3.9-7.8-5.9-14.1-5.9s-14.9 2.7-18.8 8c-4 5.4-6 13.6-6 24.7v55.1z"/><path d="m1124.4 487c-16.2 0-28.8-4.7-37.9-14.1s-13.7-22.4-13.7-39 4.2-30.3 12.7-40 20.1-14.6 34.9-14.6 24.6 4.2 32.5 12.5c8 8.3 11.9 19.8 11.9 34.4v11.9h-69.3c.3 10.1 3 17.8 8.2 23.3 5.1 5.4 12.4 8.1 21.7 8.1s11.9-.6 17.2-1.7c5.3-1.2 11-3.1 17.1-5.8v18c-5.4 2.6-10.8 4.4-16.4 5.5-5.5 1.1-11.8 1.6-18.9 1.6zm-4.1-90.9c-7 0-12.6 2.2-16.9 6.7-4.2 4.5-6.8 10.9-7.6 19.5h47.2c0-8.6-2.2-15.1-6.2-19.5s-9.5-6.6-16.5-6.6z"/><path d="m1312.3 485.2h-77.7v-137.4h77.7v19h-55.3v37.4h51.8v18.8h-51.8v43.1h55.3z"/><path d="m1427.2 485.2h-22.2v-63.9c0-8-1.6-14-4.8-18-3.2-3.9-8.4-5.9-15.4-5.9s-16.2 2.8-20.5 8.3-6.5 14.8-6.5 27.7v51.8h-22.1v-104h17.3l3.1 13.6h1.1c3.1-4.9 7.6-8.8 13.3-11.5 5.8-2.7 12.2-4 19.2-4 24.9 0 37.4 12.7 37.4 38.1v67.8z"/><path d="m1541.9 381.2v12.1l-17.8 3.3c1.6 2.2 3 4.9 4 8.1 1.1 3.2 1.6 6.6 1.6 10.2 0 10.7-3.7 19.1-11.1 25.3-7.4 6.1-17.6 9.2-30.5 9.2s-6.3-.2-9-.8c-4.8 2.9-7.1 6.4-7.1 10.3s1.1 4.2 3.3 5.4 6.3 1.8 12.3 1.8h18.1c11.5 0 20.2 2.4 26.1 7.3 6 4.9 8.9 11.9 8.9 21.1s-4.9 20.9-14.6 27.3-23.7 9.6-42.1 9.6-25-2.5-32.4-7.5c-7.5-5-11.2-12.2-11.2-21.4s2-11.8 6.1-16.1c4-4.4 9.7-7.4 17-9.1-2.9-1.3-5.4-3.3-7.3-6.1s-2.9-5.7-2.9-8.8 1.1-7.2 3.3-9.9 5.5-5.4 9.8-8c-5.4-2.3-9.8-6.1-13.1-11.3-3.4-5.2-5-11.4-5-18.4 0-11.3 3.6-20 10.7-26.2s17.2-9.3 30.4-9.3 6 .2 9.3.6c3.2.4 5.7.8 7.3 1.3h36zm-81.7 120.1c0 4.8 2.1 8.4 6.4 11s10.3 3.9 18.1 3.9c12 0 21-1.7 26.9-5.2 5.9-3.4 8.8-8 8.8-13.7s-1.6-7.7-4.8-9.6-9.2-2.9-18-2.9h-16.7c-6.3 0-11.4 1.5-15.1 4.5s-5.6 7-5.6 12.1zm9.5-86.4c0 6.5 1.7 11.5 5 15 3.4 3.5 8.2 5.3 14.4 5.3 12.8 0 19.2-6.8 19.2-20.5s-1.6-12-4.7-15.7c-3.2-3.7-8-5.5-14.4-5.5s-11.2 1.8-14.5 5.5c-3.3 3.6-4.9 8.9-4.9 15.9z"/><path d="m1556 353.7c0-3.9 1.1-7 3.2-9.1 2.2-2.1 5.2-3.2 9.3-3.2s6.9 1.1 9.1 3.2 3.2 5.2 3.2 9.1-1.1 6.7-3.2 8.9c-2.2 2.2-5.2 3.2-9.1 3.2s-7.1-1.1-9.3-3.2-3.2-5.1-3.2-8.9zm23.4 131.5h-22.1v-104h22.1z"/><path d="m1698.6 485.2h-22.2v-63.9c0-8-1.6-14-4.8-18-3.2-3.9-8.4-5.9-15.4-5.9s-16.2 2.8-20.5 8.3-6.5 14.8-6.5 27.7v51.8h-22.1v-104h17.3l3.1 13.6h1.1c3.1-4.9 7.6-8.8 13.3-11.5 5.8-2.7 12.2-4 19.2-4 24.9 0 37.4 12.7 37.4 38.1v67.8z"/><path d="m1770.9 487c-16.2 0-28.8-4.7-37.9-14.1s-13.7-22.4-13.7-39 4.2-30.3 12.7-40 20.1-14.6 34.9-14.6 24.6 4.2 32.5 12.5c8 8.3 11.9 19.8 11.9 34.4v11.9h-69.3c.3 10.1 3 17.8 8.2 23.3 5.1 5.4 12.4 8.1 21.7 8.1s11.9-.6 17.2-1.7c5.3-1.2 11-3.1 17.1-5.8v18c-5.4 2.6-10.8 4.4-16.4 5.5-5.5 1.1-11.8 1.6-18.9 1.6zm-4.1-90.9c-7 0-12.6 2.2-16.9 6.7-4.2 4.5-6.8 10.9-7.6 19.5h47.2c0-8.6-2.2-15.1-6.2-19.5s-9.5-6.6-16.5-6.6z"/><path d="m1824.7 77.1h7.7v20.2h5.6v-20.2h7.7v-5.2h-21z"/><path d="m1863.9 82.7-6.7-10.7h-6v25.4h5.5v-16.4l7.1 10.7 7.1-10.8v16.6h5.5v-25.4h-6l-6.7 10.7z"/><path d="m725.9 71.9h-76.1v210h74.9c36.7 0 67.5-10.4 89-30.2 20.5-18.9 31.4-45 31.4-75.5v-.6c0-63-46.8-103.7-119.2-103.7zm66.4 105.4c0 37.3-25.1 60.4-65.5 60.4h-25.9v-121.5h25.9c40.4 0 65.5 23.2 65.5 60.4v.6z"/><path d="m920.2 198.7h87v-41.7h-87v-43h101.8v-42.1h-152.3v210h153.9v-42.1h-103.3v-41.2z"/><path d="m1051.6 71.9v210h51.2v-78.5h81.7v-40.8h-81.7v-47.1h100.2v-43.6z"/><path d="m1515.2 71.9h-51.2v210h142.5v-43.6h-91.3z"/><path d="m1712.9 71.9h-76.1v210h74.9c36.8 0 67.5-10.4 89-30.2 20.5-18.9 31.4-45 31.4-75.5v-.6c0-63-46.8-103.7-119.1-103.7zm66.5 105.4c0 37.3-25.1 60.4-65.5 60.4h-25.9v-121.5h25.9c40.4 0 65.5 23.2 65.5 60.4v.6z"/><path d="m1324.5 70.2c-59.8 0-108.3 48.5-108.3 108.3s48.5 108.3 108.3 108.3 108.3-48.5 108.3-108.3c0-59.8-48.5-108.3-108.3-108.3zm53.4 144.8-48.6 28.2c-3 1.7-6.7 1.7-9.7 0l-48.6-28.2c-3-1.7-4.8-4.9-4.8-8.3v-56.3c0-3.4 1.8-6.6 4.8-8.3l48.6-28.2c3-1.7 6.7-1.7 9.7 0l48.6 28.2c3 1.7 4.8 4.9 4.8 8.3v56.4c0 3.4-1.8 6.6-4.8 8.3z"/><path d="m454.5 156.4v-102.5l-93.2-53.9-88.8 51.2-88.7-51.2-93.3 53.9v102.5l-88.7 51.2v107.8l88.7 51.2v102.4l93.3 53.9 88.7-51.2 88.8 51.2 93.3-53.9v-102.5l88.7-51.2v-107.8l-88.7-51.2zm-102.4 53.8-79.6 46-79.6-46 79.6-46zm-163.7 7.9 79.6 46v91.9l-79.6-46zm75-161.6-75 43.3v-86.6zm-247.9 256.2 75-43.3v86.6l-75-43.4zm345.8 199.6-88.7-51.2-88.7 51.2-79.6-46 88.7-51.2-88.8-51.2 79.6-46 88.7 51.2 88.8-51.3 79.6 46-88.7 51.2 88.7 51.1-79.6 46zm84.1-53.8-75-43.3 75-43.3zm9.2-102.5v-86.6l75 43.3zm79.5-51.3-88.7-51.2v102.4l-79.6-46v-102.5l-88.7-51.2v-91.9l88.7 51.2v-102.2l79.6 45.9v102.5l88.7 51.2v91.9z"/></g></svg>