<?xml version="1.0" encoding="UTF-8" standalone="no"?>
<!DOCTYPE svg PUBLIC "-//W3C//DTD SVG 1.1//EN" "http://www.w3.org/Graphics/SVG/1.1/DTD/svg11.dtd">
<svg width="100%" height="100%" viewBox="0 0 504 669" version="1.1" xmlns="http://www.w3.org/2000/svg" xmlns:xlink="http://www.w3.org/1999/xlink" xml:space="preserve" xmlns:serif="http://www.serif.com/" style="fill-rule:evenodd;clip-rule:evenodd;stroke-linejoin:round;stroke-miterlimit:2;">
    <g transform="matrix(1,0,0,1,-168.3,0.2)">
        <path d="M168.5,289.1L168.5,289.1Z" style="fill:rgb(255,206,0);fill-rule:nonzero;"/>
    </g>
    <g transform="matrix(1,0,0,1,-168.3,0.2)">
        <path d="M671.8,289.1L671.8,289.1Z" style="fill:rgb(0,207,255);fill-rule:nonzero;"/>
    </g>
    <g transform="matrix(1,0,0,1,-168.3,0.2)">
        <path d="M252.4,435.6" style="fill:rgb(21,36,74);"/>
    </g>
    <g transform="matrix(1,0,0,1,-168.3,0.2)">
        <path d="M587.9,435.6" style="fill:rgb(0,207,255);"/>
    </g>
    <g transform="matrix(1,0,0,1,-168.3,0.2)">
        <path d="M587.9,242L587.9,338.8L671.8,290.4L587.9,242ZM587.9,338.8L504,290.4L420.1,338.8L336.2,290.4L252.3,338.8L336.2,387.2L252.3,435.6L336.2,484L420.1,435.6L504,484L587.9,435.6L504,387.2L587.9,338.8ZM252.4,242L168.5,290.4L252.4,338.8L252.4,242ZM336.3,193.6L420.2,145.2L504.1,193.6L420.2,242L336.3,193.6Z" style="fill:rgb(21,36,74);fill-rule:nonzero;"/>
    </g>
    <g transform="matrix(1,0,0,1,-168.3,0.2)">
        <path d="M587.9,145.4L588.1,48.4L503.9,-0.2L503.7,96.8L419.9,48.4L419.9,145L504.1,193.6L504.1,290.2L587.9,338.6L587.9,242L671.6,290.4L671.8,193.4L587.8,145.4L587.9,145.4ZM504.1,387.4L587.9,435.8L588.1,338.8L504.2,387.5L504.1,387.4ZM336.3,96.7L420,48.4L336.2,0L336.2,96.6L336.3,96.7ZM420.1,241.8L419.9,338.8L336.1,290.4L336.3,193.4L420.1,241.8Z" style="fill:url(#_Linear1);fill-rule:nonzero;"/>
    </g>
    <g transform="matrix(1,0,0,1,-168.3,0.2)">
        <path d="M252.5,241.9L252.2,338.8L336.2,290.2L336.4,193.6L420.2,145.3L420.2,48.3L336.2,96.9L336.2,-0.2L252.2,48.4L252.2,145.2C252.3,145.2 168.3,193.8 168.3,193.8L168.3,290.6C168.4,290.6 252.4,242 252.4,242L252.5,241.9ZM336.1,387.3L252.1,338.8L252.1,435.6C252.2,435.6 336.1,387.3 336.1,387.3ZM503.9,96.6L504.1,0L420.3,48.3L504,96.6L503.9,96.6ZM503.9,193.7L503.9,290.5C504,290.5 420.2,338.8 420.2,338.8L420.2,242C420.1,242 503.9,193.7 503.9,193.7Z" style="fill:url(#_Linear2);fill-rule:nonzero;"/>
    </g>
    <g transform="matrix(1,0,0,1,-168.3,0.2)">
        <path d="M460.4,570.9L460.4,554.8C460.4,553.8 459.9,552.9 459,552.4L445.1,544.4C444.2,543.9 443.2,543.9 442.3,544.4L428.4,552.4C427.5,552.9 427,553.8 427,554.8L427,570.9C427,571.9 427.5,572.8 428.4,573.3L442.3,581.3C443.2,581.8 444.2,581.8 445.1,581.3L459,573.3C459.9,572.8 460.4,571.9 460.4,570.9M474.7,562.9C474.7,579.9 460.9,593.8 443.8,593.8C426.7,593.8 412.9,580 412.9,562.9C412.9,545.8 426.7,532 443.8,532C460.9,532 474.7,545.8 474.7,562.9M573.7,562.4C573.7,551.8 566.5,545.2 555,545.2L547.6,545.2L547.6,579.8L555,579.8C566.5,579.8 573.7,573.2 573.7,562.6L573.7,562.4ZM588.8,562.1L588.8,562.3C588.8,571 585.7,578.4 579.8,583.8C573.7,589.4 564.9,592.4 554.4,592.4L533,592.4L533,532.5L554.7,532.5C575.4,532.5 588.7,544.1 588.7,562.1M498.3,532.5L483.7,532.5L483.7,592.4L524.4,592.4L524.4,580L498.3,580L498.3,532.5ZM365.9,532.5L365.9,592.4L380.5,592.4L380.5,570L403.8,570L403.8,558.4L380.5,558.4L380.5,545L409.1,545L409.1,532.6L365.9,532.6L365.9,532.5ZM328.3,568.7L353.1,568.7L353.1,556.8L328.3,556.8L328.3,544.5L357.4,544.5L357.4,532.5L313.9,532.5L313.9,592.4L357.8,592.4L357.8,580.4L328.3,580.4L328.3,568.7ZM291.8,562.4C291.8,551.8 284.6,545.2 273.1,545.2L265.7,545.2L265.7,579.8L273.1,579.8C284.6,579.8 291.8,573.2 291.8,562.6L291.8,562.4ZM306.9,562.1L306.9,562.3C306.9,571 303.8,578.4 297.9,583.8C291.8,589.4 283,592.4 272.5,592.4L251.1,592.4L251.1,532.5L272.8,532.5C293.5,532.5 306.8,544.1 306.8,562.1M600,535.6L598.1,532.5L596.4,532.5L596.4,539.7L598,539.7L598,535L600,538.1L602,535L602,539.7L603.6,539.7L603.6,532.5L601.9,532.5L600,535.6ZM588.8,532.5L594.8,532.5L594.8,534L592.6,534L592.6,539.8L591,539.8L591,534L588.8,534L588.8,532.5Z" style="fill:rgb(240,242,246);fill-rule:nonzero;"/>
    </g>
    <g transform="matrix(1,0,0,1,-168.3,0.2)">
        <path d="M267.3,633.5L282.1,633.5L282.1,653.5C279.7,654.3 277.4,654.8 275.2,655.2C273,655.5 270.6,655.7 268,655.7C262,655.7 257.3,653.9 254,650.3C250.7,646.7 249.1,641.7 249.1,635.2C249.1,628.7 250.9,623.7 254.6,620.1C258.3,616.5 263.4,614.7 269.9,614.7C276.4,614.7 278,615.5 281.7,617.1L279.4,622.5C276.2,621 272.9,620.3 269.7,620.3C266.5,620.3 262.1,621.6 259.6,624.3C257.1,627 255.9,630.6 255.9,635.3C255.9,640 257,643.9 259.2,646.4C261.4,648.9 264.6,650.2 268.8,650.2C273,650.2 273.2,649.9 275.6,649.4L275.6,639.1L267.3,639.1L267.3,633.5Z" style="fill:rgb(240,242,246);fill-rule:nonzero;"/>
        <path d="M308.7,655.2L307.4,651L307.2,651C305.7,652.8 304.3,654.1 302.8,654.8C301.3,655.5 299.4,655.8 297.1,655.8C294.8,655.8 291.8,655 290.2,653.4C288.5,651.8 287.7,649.5 287.7,646.6C287.7,643.7 288.9,641.1 291.2,639.6C293.5,638 297,637.2 301.8,637L307,636.8L307,635.2C307,633.3 306.5,631.8 305.6,630.9C304.7,629.9 303.3,629.5 301.4,629.5C299.5,629.5 298.4,629.7 297,630.2C295.6,630.7 294.2,631.2 292.9,631.8L290.8,627.2C292.4,626.3 294.2,625.7 296.2,625.2C298.1,624.8 300,624.5 301.7,624.5C305.5,624.5 308.4,625.3 310.4,627C312.4,628.7 313.3,631.3 313.3,634.9L313.3,655.2L308.7,655.2ZM299.2,650.8C301.5,650.8 303.4,650.1 304.8,648.8C306.2,647.5 306.9,645.7 306.9,643.3L306.9,640.7L303,640.9C300,641 297.8,641.5 296.4,642.4C295,643.3 294.3,644.7 294.3,646.5C294.3,648.3 294.7,648.9 295.5,649.6C296.3,650.3 297.5,650.7 299.1,650.7L299.2,650.8Z" style="fill:rgb(240,242,246);fill-rule:nonzero;"/>
        <path d="M346.6,655.2L340.2,655.2L340.2,636.6C340.2,634.3 339.8,632.6 338.9,631.4C338,630.2 336.7,629.7 334.8,629.7C332.9,629.7 330.5,630.5 329.4,632.1C328.2,633.7 327.7,636.4 327.7,640.1L327.7,655.1L321.3,655.1L321.3,624.9L326.3,624.9L327.2,628.9L327.5,628.9C328.3,627.5 329.6,626.4 331.1,625.6C332.7,624.8 334.4,624.4 336.4,624.4C341,624.4 344.1,626 345.6,629.2L346,629.2C346.9,627.7 348.1,626.5 349.8,625.7C351.4,624.9 353.3,624.4 355.4,624.4C359,624.4 361.6,625.3 363.3,627.1C364.9,628.9 365.8,631.7 365.8,635.4L365.8,655.1L359.4,655.1L359.4,636.5C359.4,634.2 359,632.5 358.1,631.3C357.2,630.2 355.8,629.6 354,629.6C352.2,629.6 349.7,630.4 348.5,631.9C347.3,633.5 346.8,635.8 346.8,639.1L346.8,655.1L346.6,655.2Z" style="fill:rgb(240,242,246);fill-rule:nonzero;"/>
        <path d="M386.7,655.7C382,655.7 378.3,654.3 375.7,651.6C373.1,648.9 371.7,645.1 371.7,640.3C371.7,635.5 372.9,631.5 375.4,628.7C377.9,625.9 381.2,624.5 385.5,624.5C389.8,624.5 392.6,625.7 394.9,628.1C397.2,630.5 398.4,633.9 398.4,638.1L398.4,641.6L378.3,641.6C378.3,644.5 379.2,646.8 380.7,648.4C382.2,650 384.3,650.8 387,650.8C389.7,650.8 390.4,650.6 392,650.3C393.5,650 395.2,649.4 397,648.6L397,653.8C395.4,654.5 393.9,655.1 392.3,655.4C390.7,655.7 388.9,655.9 386.8,655.9L386.7,655.7ZM385.5,629.3C383.5,629.3 381.8,629.9 380.6,631.2C379.4,632.5 378.6,634.4 378.4,636.9L392.1,636.9C392.1,634.4 391.5,632.5 390.3,631.2C389.1,629.9 387.5,629.3 385.5,629.3Z" style="fill:rgb(240,242,246);fill-rule:nonzero;"/>
        <path d="M441.3,655.2L418.7,655.2L418.7,615.3L441.3,615.3L441.3,620.8L425.2,620.8L425.2,631.7L440.2,631.7L440.2,637.2L425.2,637.2L425.2,649.7L441.3,649.7L441.3,655.2Z" style="fill:rgb(240,242,246);fill-rule:nonzero;"/>
        <path d="M474.6,655.2L468.2,655.2L468.2,636.6C468.2,634.3 467.7,632.5 466.8,631.4C465.9,630.3 464.4,629.7 462.3,629.7C460.2,629.7 457.6,630.5 456.3,632.1C455,633.7 454.4,636.4 454.4,640.2L454.4,655.2L448,655.2L448,625L453,625L453.9,629L454.2,629C455.1,627.6 456.4,626.5 458.1,625.7C459.8,624.9 461.6,624.5 463.7,624.5C470.9,624.5 474.6,628.2 474.6,635.6L474.6,655.3L474.6,655.2Z" style="fill:rgb(240,242,246);fill-rule:nonzero;"/>
        <path d="M507.9,625L507.9,628.5L502.7,629.5C503.2,630.1 503.6,630.9 503.9,631.8C504.2,632.7 504.4,633.7 504.4,634.7C504.4,637.8 503.3,640.3 501.2,642C499.1,643.8 496.1,644.7 492.3,644.7C488.5,644.7 490.5,644.7 489.7,644.5C488.3,645.4 487.6,646.4 487.6,647.5C487.6,648.6 487.9,648.7 488.6,649.1C489.2,649.4 490.4,649.6 492.2,649.6L497.5,649.6C500.8,649.6 503.4,650.3 505.1,651.7C506.8,653.1 507.7,655.2 507.7,657.8C507.7,660.4 506.3,663.9 503.5,665.7C500.7,667.6 496.6,668.5 491.3,668.5C486,668.5 484,667.8 481.9,666.3C479.7,664.8 478.7,662.8 478.7,660.1C478.7,657.4 479.3,656.7 480.5,655.4C481.7,654.1 483.3,653.3 485.4,652.8C484.5,652.4 483.8,651.8 483.3,651C482.7,650.2 482.5,649.3 482.5,648.4C482.5,647.5 482.8,646.3 483.5,645.5C484.1,644.7 485.1,643.9 486.3,643.2C484.7,642.5 483.5,641.4 482.5,639.9C481.5,638.4 481,636.6 481,634.6C481,631.3 482,628.8 484.1,627C486.2,625.2 489.1,624.3 492.9,624.3C496.7,624.3 494.7,624.3 495.6,624.5C496.5,624.6 497.2,624.7 497.7,624.9L508.2,624.9L507.9,625ZM484.2,659.9C484.2,661.3 484.8,662.3 486.1,663.1C487.3,663.8 489.1,664.2 491.4,664.2C494.9,664.2 497.5,663.7 499.2,662.7C500.9,661.7 501.8,660.4 501.8,658.7C501.8,657 501.3,656.5 500.4,655.9C499.5,655.3 497.7,655.1 495.2,655.1L490.3,655.1C488.5,655.1 487,655.5 485.9,656.4C484.8,657.3 484.3,658.4 484.3,659.9L484.2,659.9ZM487,634.8C487,636.7 487.5,638.1 488.5,639.2C489.5,640.2 490.9,640.7 492.7,640.7C496.4,640.7 498.3,638.7 498.3,634.7C498.3,630.7 497.8,631.2 496.9,630.2C496,629.1 494.6,628.6 492.7,628.6C490.8,628.6 489.4,629.1 488.5,630.2C487.5,631.3 487.1,632.8 487.1,634.8L487,634.8Z" style="fill:rgb(240,242,246);fill-rule:nonzero;"/>
        <path d="M512,617C512,615.9 512.3,615 512.9,614.4C513.5,613.8 514.4,613.5 515.6,613.5C516.8,613.5 517.6,613.8 518.2,614.4C518.8,615 519.1,615.9 519.1,617C519.1,618.1 518.8,619 518.2,619.6C517.6,620.2 516.7,620.5 515.6,620.5C514.5,620.5 513.5,620.2 512.9,619.6C512.3,619 512,618.1 512,617ZM518.8,655.2L512.4,655.2L512.4,625L518.8,625L518.8,655.2Z" style="fill:rgb(240,242,246);fill-rule:nonzero;"/>
        <path d="M553.4,655.2L547,655.2L547,636.6C547,634.3 546.5,632.5 545.6,631.4C544.7,630.3 543.2,629.7 541.1,629.7C539,629.7 536.4,630.5 535.1,632.1C533.8,633.7 533.2,636.4 533.2,640.2L533.2,655.2L526.8,655.2L526.8,625L531.8,625L532.7,629L533,629C533.9,627.6 535.2,626.5 536.9,625.7C538.6,624.9 540.4,624.5 542.5,624.5C549.7,624.5 553.4,628.2 553.4,635.6L553.4,655.3L553.4,655.2Z" style="fill:rgb(240,242,246);fill-rule:nonzero;"/>
        <path d="M574.4,655.7C569.7,655.7 566,654.3 563.4,651.6C560.8,648.9 559.4,645.1 559.4,640.3C559.4,635.5 560.6,631.5 563.1,628.7C565.6,625.9 568.9,624.5 573.2,624.5C577.5,624.5 580.3,625.7 582.6,628.1C584.9,630.5 586.1,633.9 586.1,638.1L586.1,641.6L566,641.6C566,644.5 566.9,646.8 568.4,648.4C569.9,650 572,650.8 574.7,650.8C577.4,650.8 578.1,650.6 579.7,650.3C581.2,650 582.9,649.4 584.7,648.6L584.7,653.8C583.1,654.5 581.6,655.1 580,655.4C578.4,655.7 576.6,655.9 574.5,655.9L574.4,655.7ZM573.3,629.3C571.3,629.3 569.6,629.9 568.4,631.2C567.2,632.5 566.4,634.4 566.2,636.9L579.9,636.9C579.9,634.4 579.3,632.5 578.1,631.2C576.9,629.9 575.3,629.3 573.3,629.3Z" style="fill:rgb(240,242,246);fill-rule:nonzero;"/>
    </g>
    <defs>
        <linearGradient id="_Linear1" x1="0" y1="0" x2="1" y2="0" gradientUnits="userSpaceOnUse" gradientTransform="matrix(377.414,217.9,-217.9,377.414,304.57,54.0226)"><stop offset="0" style="stop-color:rgb(28,104,236);stop-opacity:1"/><stop offset="1" style="stop-color:rgb(0,233,223);stop-opacity:1"/></linearGradient>
        <linearGradient id="_Linear2" x1="0" y1="0" x2="1" y2="0" gradientUnits="userSpaceOnUse" gradientTransform="matrix(293.583,169.5,-169.5,293.583,217.25,108.671)"><stop offset="0" style="stop-color:rgb(255,60,42);stop-opacity:1"/><stop offset="1" style="stop-color:rgb(255,210,21);stop-opacity:1"/></linearGradient>
    </defs>
</svg>
