<?xml version="1.0" encoding="UTF-8" standalone="no"?>
<!DOCTYPE svg PUBLIC "-//W3C//DTD SVG 1.1//EN" "http://www.w3.org/Graphics/SVG/1.1/DTD/svg11.dtd">
<svg width="100%" height="100%" viewBox="0 0 504 669" version="1.1" xmlns="http://www.w3.org/2000/svg" xmlns:xlink="http://www.w3.org/1999/xlink" xml:space="preserve" xmlns:serif="http://www.serif.com/" style="fill-rule:evenodd;clip-rule:evenodd;stroke-linejoin:round;stroke-miterlimit:2;">
    <g id="Logos" transform="matrix(1,0,0,1,-169.3,0)">
        <path d="M664.1,282.1L581.6,234.7L581.6,329.5L507.6,287L507.6,192.2L425.1,144.8L425.1,59.6L507.6,107L507.6,12.2L581.6,54.7L581.6,149.5L664.1,196.9L664.1,282.1ZM590.1,329.5L590.1,249.3L659.8,289.4L590.1,329.5ZM581.6,424.3L511.9,384.2L581.6,344.1L581.6,424.3ZM503.4,474.2L420.9,426.8L338.4,474.2L264.4,431.7L346.9,384.3L264.4,336.9L338.4,294.4L420.9,341.8L503.4,294.4L577.4,336.9L494.9,384.3L577.4,431.7L503.4,474.2ZM182,289.4L251.7,249.3L251.7,329.5L182,289.4ZM412.5,52.3L342.8,92.4L342.8,12.2L412.5,52.3ZM342.7,201.9L416.7,244.4L416.7,329.5L342.7,287L342.7,201.9ZM494.9,194.6L420.9,237.1L346.9,194.6L420.9,152.1L494.9,194.6ZM590.1,144.7L590.1,49.9L503.4,0L420.9,47.4L338.5,0L251.8,49.9L251.8,144.7L169.3,192.1L169.3,291.8L251.8,339.2L251.8,434L338.5,483.9L421,436.5L503.5,483.9L590.2,434L590.2,339.2L672.7,291.8L672.7,192.1L590.2,144.7L590.1,144.7Z" style="fill:rgb(240,242,246);fill-rule:nonzero;"/>
    </g>
    <g transform="matrix(1,0,0,1,-169.3,0)">
        <path d="M462.6,571.2L462.6,555.2C462.6,554.2 462.1,553.3 461.2,552.8L447.4,544.8C446.5,544.3 445.5,544.3 444.6,544.8L430.8,552.8C430,553.3 429.4,554.2 429.4,555.2L429.4,571.2C429.4,572.2 429.9,573.1 430.8,573.6L444.6,581.6C445.5,582.1 446.5,582.1 447.4,581.6L461.2,573.6C462,573.1 462.6,572.2 462.6,571.2M476.9,563.2C476.9,580.2 463.1,594 446,594C428.9,594 415.1,580.2 415.1,563.2C415.1,546.2 428.9,532.4 446,532.4C463.1,532.4 476.9,546.2 476.9,563.2M575.7,562.6C575.7,552 568.6,545.4 557,545.4L549.6,545.4L549.6,580L557,580C568.5,580 575.7,573.4 575.7,562.8L575.7,562.6ZM590.7,562.4L590.7,562.6C590.7,571.3 587.6,578.7 581.8,584.1C575.7,589.7 566.9,592.7 556.4,592.7L535.1,592.7L535.1,533L556.8,533C577.4,533 590.8,544.6 590.8,562.5M500.4,532.9L485.8,532.9L485.8,592.6L526.4,592.6L526.4,580.2L500.4,580.2L500.4,532.9ZM368.3,532.9L368.3,592.6L382.9,592.6L382.9,570.3L406.2,570.3L406.2,558.7L382.9,558.7L382.9,545.3L411.5,545.3L411.5,532.9L368.3,532.9ZM330.8,568.9L355.6,568.9L355.6,557L330.8,557L330.8,544.8L359.8,544.8L359.8,532.8L316.4,532.8L316.4,592.5L360.2,592.5L360.2,580.5L330.8,580.5L330.8,568.8L330.8,568.9ZM294.4,562.6C294.4,552 287.3,545.4 275.7,545.4L268.3,545.4L268.3,580L275.7,580C287.2,580 294.4,573.4 294.4,562.8L294.4,562.6ZM309.4,562.4L309.4,562.6C309.4,571.3 306.3,578.7 300.5,584.1C294.4,589.7 285.6,592.7 275.1,592.7L253.8,592.7L253.8,533L275.5,533C296.1,533 309.5,544.6 309.5,562.5M601.9,535.9L600,532.8L598.3,532.8L598.3,540L599.9,540L599.9,535.3L601.9,538.4L603.9,535.3L603.9,540L605.5,540L605.5,532.8L603.8,532.8L601.9,535.9ZM590.7,532.9L596.7,532.9L596.7,534.4L594.5,534.4L594.5,540.2L592.9,540.2L592.9,534.4L590.7,534.4L590.7,532.9Z" style="fill:rgb(240,242,246);fill-rule:nonzero;"/>
    </g>
    <g transform="matrix(1,0,0,1,-169.3,0)">
        <path d="M270,633.6L284.7,633.6L284.7,653.6C282.3,654.4 280,654.9 277.8,655.3C275.6,655.6 273.2,655.8 270.6,655.8C264.6,655.8 259.9,654 256.7,650.4C253.4,646.8 251.8,641.8 251.8,635.3C251.8,628.8 253.6,623.9 257.3,620.3C261,616.7 266.1,614.9 272.5,614.9C278.9,614.9 280.6,615.7 284.3,617.3L282,622.7C278.8,621.2 275.5,620.5 272.3,620.5C269.1,620.5 264.7,621.8 262.2,624.5C259.7,627.2 258.5,630.8 258.5,635.5C258.5,640.2 259.6,644.1 261.8,646.6C264,649.1 267.2,650.4 271.4,650.4C275.6,650.4 275.8,650.1 278.2,649.6L278.2,639.3L269.9,639.3L269.9,633.7L270,633.6Z" style="fill:rgb(240,242,246);fill-rule:nonzero;"/>
        <path d="M311.3,655.2L310,651L309.8,651C308.3,652.8 306.9,654.1 305.4,654.7C303.9,655.4 302,655.7 299.7,655.7C297.4,655.7 294.4,654.9 292.8,653.3C291.1,651.7 290.3,649.4 290.3,646.5C290.3,643.6 291.5,641.1 293.8,639.5C296.1,637.9 299.6,637.1 304.3,636.9L309.5,636.7L309.5,635.1C309.5,633.2 309.1,631.7 308.2,630.8C307.3,629.8 305.9,629.4 304,629.4C302.1,629.4 301,629.6 299.6,630.1C298.2,630.6 296.8,631.1 295.5,631.7L293.4,627.1C295,626.2 296.8,625.6 298.8,625.2C300.7,624.8 302.6,624.5 304.3,624.5C308.1,624.5 311,625.3 313,627C315,628.7 315.9,631.3 315.9,634.9L315.9,655.2L311.3,655.2ZM301.7,650.9C304,650.9 305.9,650.3 307.3,649C308.7,647.7 309.4,645.9 309.4,643.5L309.4,640.9L305.5,641.1C302.5,641.2 300.3,641.7 298.9,642.6C297.5,643.5 296.8,644.9 296.8,646.7C296.8,648.5 297.2,649.1 298,649.8C298.8,650.5 300,650.9 301.6,650.9L301.7,650.9Z" style="fill:rgb(240,242,246);fill-rule:nonzero;"/>
        <path d="M349.1,655.2L342.7,655.2L342.7,636.6C342.7,634.3 342.3,632.6 341.4,631.4C340.5,630.2 339.2,629.7 337.3,629.7C335.4,629.7 333,630.5 331.9,632.1C330.7,633.7 330.2,636.4 330.2,640.1L330.2,655.1L323.8,655.1L323.8,625L328.8,625L329.7,628.9L330,628.9C330.8,627.5 332,626.4 333.6,625.6C335.2,624.8 336.9,624.4 338.8,624.4C343.4,624.4 346.5,626 348,629.1L348.4,629.1C349.3,627.6 350.5,626.4 352.2,625.6C353.8,624.8 355.7,624.3 357.8,624.3C361.4,624.3 364,625.2 365.7,627C367.3,628.8 368.2,631.6 368.2,635.3L368.2,654.9L361.8,654.9L361.8,636.3C361.8,634 361.4,632.3 360.5,631.1C359.6,630 358.3,629.4 356.4,629.4C354.5,629.4 352.1,630.2 350.9,631.7C349.7,633.3 349.2,635.6 349.2,638.9L349.2,654.9L349.1,655.2Z" style="fill:rgb(240,242,246);fill-rule:nonzero;"/>
        <path d="M389,655.8C384.3,655.8 380.7,654.4 378,651.7C375.4,649 374,645.2 374,640.4C374,635.6 375.2,631.6 377.7,628.8C380.2,626 383.5,624.6 387.8,624.6C392.1,624.6 394.9,625.8 397.2,628.2C399.5,630.6 400.7,633.9 400.7,638.2L400.7,641.7L380.6,641.7C380.6,644.6 381.5,646.9 383,648.4C384.5,650 386.6,650.8 389.3,650.8C392,650.8 392.7,650.6 394.3,650.3C395.8,650 397.5,649.4 399.2,648.6L399.2,653.8C397.6,654.5 396.1,655.1 394.5,655.4C392.9,655.7 391.1,655.9 389,655.9L389,655.8ZM387.9,629.4C385.9,629.4 384.2,630 383,631.3C381.8,632.6 381,634.5 380.8,636.9L394.5,636.9C394.5,634.4 393.9,632.5 392.7,631.2C391.5,629.9 389.9,629.3 387.9,629.3L387.9,629.4Z" style="fill:rgb(240,242,246);fill-rule:nonzero;"/>
        <path d="M443.5,655.2L421,655.2L421,615.4L443.5,615.4L443.5,620.9L427.5,620.9L427.5,631.7L442.5,631.7L442.5,637.1L427.5,637.1L427.5,649.6L443.5,649.6L443.5,655.2Z" style="fill:rgb(240,242,246);fill-rule:nonzero;"/>
        <path d="M476.8,655.2L470.4,655.2L470.4,636.7C470.4,634.4 469.9,632.6 469,631.5C468.1,630.4 466.6,629.8 464.5,629.8C462.4,629.8 459.8,630.6 458.6,632.2C457.3,633.8 456.7,636.5 456.7,640.2L456.7,655.2L450.3,655.2L450.3,625.1L455.3,625.1L456.2,629L456.5,629C457.4,627.6 458.7,626.5 460.4,625.7C462.1,624.9 463.9,624.5 466,624.5C473.2,624.5 476.8,628.2 476.8,635.5L476.8,655.2Z" style="fill:rgb(240,242,246);fill-rule:nonzero;"/>
        <path d="M510,625.1L510,628.6L504.9,629.6C505.4,630.2 505.8,631 506.1,631.9C506.4,632.8 506.6,633.8 506.6,634.8C506.6,637.9 505.5,640.3 503.4,642.1C501.3,643.9 498.3,644.8 494.5,644.8C490.7,644.8 492.7,644.8 491.9,644.6C490.5,645.5 489.8,646.5 489.8,647.6C489.8,648.7 490.1,648.8 490.8,649.2C491.4,649.5 492.6,649.7 494.4,649.7L499.7,649.7C503,649.7 505.5,650.4 507.3,651.8C509,653.2 509.9,655.3 509.9,657.9C509.9,660.5 508.5,663.9 505.7,665.8C502.9,667.7 498.8,668.6 493.5,668.6C488.2,668.6 486.3,667.9 484.1,666.4C481.9,664.9 480.9,662.9 480.9,660.2C480.9,657.5 481.5,656.8 482.7,655.5C483.9,654.2 485.5,653.4 487.6,652.9C486.7,652.5 486,652 485.5,651.1C484.9,650.3 484.7,649.4 484.7,648.6C484.7,647.8 485,646.5 485.7,645.7C486.3,644.9 487.3,644.1 488.5,643.4C486.9,642.7 485.7,641.6 484.7,640.1C483.7,638.6 483.2,636.8 483.2,634.8C483.2,631.5 484.2,629 486.3,627.2C488.4,625.4 491.3,624.5 495.1,624.5C498.9,624.5 496.8,624.5 497.8,624.7C498.7,624.8 499.4,624.9 499.9,625.1L510.3,625.1L510,625.1ZM486.4,659.9C486.4,661.3 487,662.3 488.3,663.1C489.5,663.8 491.3,664.2 493.5,664.2C497,664.2 499.6,663.7 501.3,662.7C503,661.7 503.9,660.4 503.9,658.7C503.9,657 503.4,656.5 502.5,655.9C501.6,655.3 499.8,655.1 497.3,655.1L492.5,655.1C490.7,655.1 489.2,655.5 488.1,656.4C487,657.3 486.5,658.4 486.5,659.9L486.4,659.9ZM489.1,634.9C489.1,636.8 489.6,638.2 490.6,639.3C491.6,640.3 493,640.8 494.8,640.8C498.5,640.8 500.4,638.8 500.4,634.9C500.4,631 499.9,631.4 499,630.4C498.1,629.3 496.7,628.8 494.8,628.8C492.9,628.8 491.5,629.3 490.6,630.4C489.6,631.5 489.2,633 489.2,635L489.1,634.9Z" style="fill:rgb(240,242,246);fill-rule:nonzero;"/>
        <path d="M514.1,617.1C514.1,616 514.4,615.1 515,614.5C515.6,613.9 516.5,613.6 517.7,613.6C518.9,613.6 519.7,613.9 520.3,614.5C520.9,615.1 521.2,616 521.2,617.1C521.2,618.2 520.9,619 520.3,619.7C519.7,620.3 518.8,620.6 517.7,620.6C516.6,620.6 515.6,620.3 515,619.7C514.4,619.1 514.1,618.2 514.1,617.1ZM520.9,655.2L514.5,655.2L514.5,625.1L520.9,625.1L520.9,655.2Z" style="fill:rgb(240,242,246);fill-rule:nonzero;"/>
        <path d="M555.5,655.2L549.1,655.2L549.1,636.7C549.1,634.4 548.6,632.6 547.7,631.5C546.8,630.4 545.3,629.8 543.2,629.8C541.1,629.8 538.5,630.6 537.3,632.2C536,633.8 535.4,636.5 535.4,640.2L535.4,655.2L529,655.2L529,625.1L534,625.1L534.9,629L535.2,629C536.1,627.6 537.4,626.5 539.1,625.7C540.8,624.9 542.6,624.5 544.7,624.5C551.9,624.5 555.5,628.2 555.5,635.5L555.5,655.2Z" style="fill:rgb(240,242,246);fill-rule:nonzero;"/>
        <path d="M576.4,655.8C571.7,655.8 568.1,654.4 565.4,651.7C562.8,649 561.4,645.2 561.4,640.4C561.4,635.6 562.6,631.6 565.1,628.8C567.6,626 570.9,624.6 575.2,624.6C579.5,624.6 582.3,625.8 584.6,628.2C586.9,630.6 588.1,633.9 588.1,638.2L588.1,641.7L568,641.7C568,644.6 568.9,646.9 570.4,648.4C571.9,650 574,650.8 576.7,650.8C579.4,650.8 580.1,650.6 581.7,650.3C583.2,650 584.9,649.4 586.6,648.6L586.6,653.8C585,654.5 583.5,655.1 581.9,655.4C580.3,655.7 578.5,655.9 576.4,655.9L576.4,655.8ZM575.2,629.4C573.2,629.4 571.5,630 570.3,631.3C569.1,632.6 568.3,634.5 568.1,636.9L581.8,636.9C581.8,634.4 581.2,632.5 580,631.2C578.8,629.9 577.2,629.3 575.2,629.3L575.2,629.4Z" style="fill:rgb(240,242,246);fill-rule:nonzero;"/>
    </g>
</svg>
